<svg width="159" height="150" viewBox="0 0 159 150" fill="none" xmlns="http://www.w3.org/2000/svg">
<path d="M73.5446 0.132809C63.2881 0.999229 52.8208 3.90291 43.8522 8.3755C42.0023 9.28876 40.5036 10.1083 40.5036 10.1786C40.5036 10.2723 41.2764 11.1387 42.213 12.1456L43.899 13.9721L45.1869 13.2696C48.957 11.2089 57.1061 8.16475 62.0704 6.94708C67.2455 5.68258 70.922 5.23766 77.4552 5.12058C84.0353 4.98008 86.4238 5.16741 92.3717 6.24458C98.9518 7.43883 106 9.80393 112.089 12.8715L114.196 13.9253L117.826 10.2488L116.819 9.66343C114.828 8.49259 109.442 6.01041 106.656 4.95666C101.106 2.89599 94.7368 1.35048 88.1567 0.484061C84.7612 0.0391425 76.8932 -0.148191 73.5446 0.132809Z" fill="url(#paint0_linear_122_4)"/>
<path d="M23.0113 13.4101L17.0868 16.5714V32.565L17.6254 32.8226C17.9064 32.9397 20.5291 34.3447 23.4328 35.9136C26.3365 37.4825 28.8421 38.7704 28.9826 38.7704C29.287 38.7704 36.6867 34.9769 39.1688 33.5719L40.7378 32.6587L40.6909 24.5331L40.6207 16.4074L38.6303 15.3537C34.7899 13.2696 29.1933 10.3191 29.0528 10.2957C28.9826 10.2723 26.2428 11.6773 23.0113 13.4101ZM31.2306 15.3303C34.1108 16.8758 34.8836 17.3207 34.8836 17.4612C34.8836 17.6485 29.6382 20.5054 29.3104 20.5054C28.9123 20.5054 23.6435 17.6485 23.6435 17.4378C23.6435 17.2036 28.5142 14.2531 29.006 14.2063C29.0528 14.1829 30.0597 14.698 31.2306 15.3303ZM37.155 22.0743C37.0613 22.9641 36.9911 25.1887 36.9911 27.0621V30.4809L34.6728 31.6986C33.4083 32.3777 32.3077 32.9163 32.2141 32.9163C32.1438 32.9163 32.0736 30.7151 32.0736 28.0456V23.1515L34.4855 21.8401C35.7968 21.1142 36.9677 20.5288 37.0847 20.5288C37.2018 20.5054 37.2252 21.2079 37.155 22.0743Z" fill="url(#paint1_linear_122_4)"/>
<path d="M48.6995 17.391C48.5121 17.4612 48.0672 17.789 47.716 18.1169C45.9831 19.7326 47.1305 22.6129 49.4956 22.6129C52.3525 22.6129 53.2423 18.796 50.6665 17.5783C49.8937 17.227 49.3317 17.1568 48.6995 17.391Z" fill="url(#paint2_linear_122_4)"/>
<path d="M75.4414 17.4846C70.9454 18.07 65.8873 20.1073 62.7495 22.5895C60.1971 24.6033 56.8953 28.7012 56.146 30.7151L55.8884 31.441L54.2258 31.3239C52.0949 31.2068 50.924 31.5347 49.683 32.5884C48.3482 33.7358 47.7159 35.0238 47.5754 36.9205C47.4818 38.2319 47.552 38.6768 48.0438 39.7305C48.676 41.0419 50.245 42.7981 51.3221 43.3601L51.931 43.688L51.1348 45.2569C49.3551 48.7928 49.4254 53.4996 51.3221 57.0823C52.1417 58.6278 53.7575 60.548 55.2093 61.7188L56.2162 62.5384L56.0757 66.5193C55.7947 75.3708 54.6005 80.7332 51.6031 86.5406C48.5824 92.4416 43.7819 97.0547 38.3961 99.2559C36.4525 100.052 32.378 101.199 32.1672 100.989C32.1204 100.942 32.2375 100.497 32.4482 99.9818C33.3381 97.8509 32.4014 94.1276 30.4578 92.184C25.9384 87.6646 17.9767 90.2639 17.1805 96.5395L17.0166 97.7806L16.3375 97.1952C15.0028 96.0478 12.8016 96.7503 12.4972 98.3895C12.2396 99.7242 12.7782 100.427 16.6653 104.009C22.2151 109.138 23.784 110.168 27.7415 111.433C32.4014 112.884 37.2487 112.861 42.494 111.339C45.2104 110.543 49.5425 108.295 51.931 106.468C53.7106 105.087 54.0853 104.876 53.9916 105.321C53.9214 105.625 53.5936 107.499 53.2657 109.489C52.9379 111.479 52.6335 113.4 52.5632 113.727C52.4695 114.336 52.5398 114.36 54.8112 114.969C56.1226 115.32 57.1997 115.577 57.2466 115.531C57.3402 115.437 58.2301 106.492 58.6516 101.293C59.237 94.0105 60.642 70.7577 60.642 68.3224C60.642 67.0579 60.7122 65.9573 60.7825 65.887C60.8527 65.8168 61.485 65.9339 62.1641 66.1915C64.2716 66.9408 67.6436 67.737 70.477 68.1819C74.2705 68.7907 83.7777 68.7907 87.4542 68.2053C89.8661 67.8072 95.369 66.4725 96.7272 65.9573L97.336 65.7465L97.617 71.8583C98.3664 88.1563 100.31 115.296 100.755 115.718C100.778 115.741 101.762 115.507 102.909 115.203C104.08 114.898 105.274 114.641 105.579 114.641C106.047 114.641 106.094 114.57 105.953 113.985C105.462 112.088 104.455 107.335 104.314 106.351C104.15 105.227 104.174 105.204 104.619 105.532C109.63 109.185 112.651 110.683 117.521 111.878C119.137 112.299 120.261 112.393 123.165 112.393C126.396 112.416 127.052 112.346 129.019 111.784C133.491 110.543 135.669 109.208 141.102 104.337C145.668 100.263 145.645 100.286 145.645 98.9515C145.645 97.968 145.551 97.7338 144.919 97.2186C144.006 96.4459 142.928 96.4225 141.851 97.1718L141.032 97.7338L140.891 96.5161C140.634 93.9403 138.971 91.6923 136.536 90.5683C134.803 89.7721 132.133 89.7253 130.166 90.498C126.63 91.8562 124.382 96.4927 125.577 99.9818L125.951 101.036L125.202 100.895C121.549 100.216 117.615 98.5066 114.758 96.3756C108.74 91.903 105.391 86.3767 103.307 77.5252C102.394 73.6848 102.09 70.8748 102.09 66.3085V62.6789L104.057 60.7353C105.579 59.2133 106.188 58.3937 106.867 56.9887C108.834 52.8673 108.88 48.9567 106.96 45.2569C106.539 44.4607 106.164 43.7348 106.117 43.6645C106.094 43.5943 106.328 43.407 106.632 43.2665C107.663 42.7981 109.138 41.2994 109.747 40.1052C111.784 36.0775 109.161 31.2771 104.9 31.2302C104.291 31.2302 103.471 31.3005 103.097 31.3707C102.488 31.5112 102.394 31.4176 101.762 30.2467C97.1253 21.325 86.3068 16.0796 75.4414 17.4846ZM68.6271 30.9024C70.3131 31.3005 71.7884 32.1435 72.9358 33.408C73.8256 34.4149 75.3945 37.4591 75.3945 38.2319C75.3945 38.9344 75.6755 39.7071 75.8629 39.59C75.9565 39.5198 76.7761 39.3793 77.666 39.2388C79.1881 39.028 81.1785 39.1919 82.2088 39.59C82.5132 39.7071 82.6303 39.5198 82.7474 38.5597C82.9582 36.8971 84.3163 34.3447 85.6745 33.0802C87.1498 31.6986 88.344 31.1132 90.3344 30.7619C93.8938 30.1531 97.3829 31.9093 99.3733 35.3048C100.427 37.1313 100.731 38.3021 100.919 41.557L101.13 44.6949L102.066 45.655C105.368 49.027 104.712 54.8343 100.591 58.581C96.1418 62.6321 89.5617 64.4118 79.1412 64.4118C72.725 64.3884 69.5404 63.9903 64.6228 62.515C61.7894 61.6486 59.7053 60.4778 57.6915 58.6044C56.3099 57.3165 55.7713 56.5906 54.9517 54.9748C54.0385 53.1015 53.9682 52.8439 53.9682 51.0876C53.9916 48.7928 54.6707 47.0834 56.1694 45.5847L57.1295 44.6246V42.1659C57.1295 40.8311 57.2466 39.1685 57.3871 38.4894C58.1598 34.813 61.3913 31.5112 64.857 30.8322C66.3791 30.5277 67.1519 30.5512 68.6271 30.9024ZM54.3663 34.9067C54.4131 34.9769 54.3429 35.6794 54.179 36.4756C53.9916 37.2952 53.8511 38.6065 53.8511 39.4261V40.9014L53.2891 40.4799C52.3056 39.7539 51.5095 38.3021 51.5095 37.2249C51.5095 35.7497 52.1417 35.1643 54.1087 34.813C54.179 34.7896 54.2961 34.8364 54.3663 34.9067ZM105.766 35.3984C106.047 35.5858 106.422 36.1478 106.562 36.6629C106.796 37.4591 106.796 37.7401 106.492 38.3724C106.07 39.2856 104.946 40.6438 104.642 40.6438C104.525 40.6438 104.431 40.0349 104.431 39.2856C104.431 38.5597 104.267 37.3654 104.08 36.6629C103.588 34.813 103.588 34.7193 104.502 34.9067C104.9 35.0003 105.485 35.2111 105.766 35.3984ZM26.1023 94.596C27.156 95.0409 27.8585 96.2117 27.8585 97.4996C27.8585 98.3661 27.718 98.6705 27.0624 99.3261C26.3599 100.029 26.1257 100.122 25.0485 100.122C23.948 100.122 23.7372 100.029 22.9176 99.2091C22.1449 98.4363 22.0044 98.1553 22.0044 97.3123C22.0044 96.0946 22.5664 95.0877 23.503 94.6428C24.4163 94.1744 25.0954 94.1745 26.1023 94.596ZM134.522 94.596C136.489 95.439 136.559 98.6002 134.639 99.7477C134.264 99.9584 133.491 100.122 132.883 100.122C131.946 100.122 131.665 100.005 130.986 99.3261C130.283 98.6236 130.19 98.3661 130.19 97.3591C130.19 95.0409 132.321 93.6827 134.522 94.596Z" fill="url(#paint3_linear_122_4)"/>
<path d="M61.1806 38.2319C60.6888 38.4192 60.8293 39.9413 61.4382 40.995C61.766 41.5336 62.4685 42.283 63.0071 42.6576C63.8735 43.243 64.2013 43.3367 65.6766 43.3367C67.1284 43.3367 67.5031 43.243 68.51 42.6342C70.758 41.2292 71.5776 38.0679 69.6574 38.0679C69.3296 38.0679 69.0018 38.3958 68.6271 39.1451C68.0417 40.2457 66.7772 41.1121 65.7937 41.1121C64.8102 41.1121 63.5457 40.2457 62.9602 39.1451C62.4217 38.0914 62.0002 37.8806 61.1806 38.2319Z" fill="url(#paint4_linear_122_4)"/>
<path d="M87.6883 38.6299C87.3839 39.0983 87.3605 39.3793 87.5478 40.1052C87.8288 41.1121 89.4212 42.8215 90.4515 43.1962C91.4584 43.5943 93.4254 43.5006 94.4792 43.0089C96.3994 42.1425 97.8278 39.7774 97.1955 38.5597C96.7272 37.7167 95.8842 37.9274 95.2519 39.0514C94.5729 40.2691 93.7533 40.878 92.5824 41.0419C91.4116 41.1824 90.2642 40.433 89.4914 39.0514C88.8592 37.9274 88.2503 37.7869 87.6883 38.6299Z" fill="url(#paint5_linear_122_4)"/>
<path d="M75.3243 42.845C74.1535 43.2665 73.5914 43.8051 73.2636 44.7886C72.9124 45.8423 73.17 47.0131 73.9193 47.903C74.575 48.6991 76.5185 49.7763 77.2679 49.7763C77.7128 49.7763 77.7362 49.9168 77.7362 51.8838C77.7362 54.5065 77.3147 55.6539 76.0268 56.5906C75.254 57.1526 74.856 57.2697 73.7554 57.2697C72.5377 57.2697 72.2567 57.176 71.1561 56.333C69.7277 55.2793 69.7043 55.2558 69.2125 55.771C68.6271 56.333 68.7676 57.176 69.5872 58.0893C70.7814 59.4474 71.9523 59.9626 73.9895 59.9626C75.98 59.9626 76.9869 59.5645 78.2748 58.3234L79.0944 57.5273L79.5861 58.0658C80.3823 58.9323 82.3025 59.8455 83.5436 60.0094C86.7517 60.3841 90.6857 57.3868 89.0699 55.771C88.5547 55.2324 87.9693 55.3027 87.3137 56.0052C86.5175 56.8716 85.6277 57.2697 84.5505 57.2697C81.4361 57.2697 79.7969 54.6236 80.4526 50.6427C80.5696 49.9402 80.7336 49.7295 81.2253 49.6124C83.0752 49.1909 84.8549 47.5986 85.1125 46.1701C85.3701 44.812 84.1992 43.1962 82.6303 42.7513C81.4361 42.4 76.378 42.4703 75.3243 42.845Z" fill="url(#paint6_linear_122_4)"/>
<path d="M60.923 48.6523C60.7591 48.8162 60.642 49.0972 60.642 49.308C60.642 50.1276 61.1338 50.2447 64.3419 50.2447C67.5499 50.2447 68.3695 50.0573 68.3695 49.3548C68.3695 48.4884 67.9012 48.3713 64.5058 48.3713C62.2578 48.3713 61.1103 48.465 60.923 48.6523Z" fill="url(#paint7_linear_122_4)"/>
<path d="M90.1939 48.6523C89.7958 49.0504 89.8427 49.9402 90.2876 50.1042C90.4983 50.1744 91.9502 50.2447 93.5191 50.2447C95.7203 50.2447 96.493 50.151 96.8911 49.87C97.4999 49.4485 97.5234 49.2377 97.0316 48.746C96.7506 48.4416 96.0715 48.3713 93.5659 48.3713C91.4818 48.3713 90.3813 48.465 90.1939 48.6523Z" fill="url(#paint8_linear_122_4)"/>
<path d="M61.0635 52.1414C60.5249 52.4458 60.5249 53.2186 61.0635 53.4996C61.6255 53.804 65.7703 53.7806 66.3088 53.4996C66.824 53.2186 66.8709 52.2117 66.3557 52.0243C65.7468 51.7902 61.485 51.8838 61.0635 52.1414Z" fill="url(#paint9_linear_122_4)"/>
<path d="M91.8331 52.1648C91.4116 52.5863 91.5053 53.242 91.997 53.523C92.7464 53.9211 96.376 53.8274 96.7975 53.3825C97.2892 52.9142 97.2658 52.2117 96.7975 52.0243C96.1184 51.7667 92.1375 51.8604 91.8331 52.1648Z" fill="url(#paint10_linear_122_4)"/>
<path d="M107.194 17.6017C104.923 18.8194 105.789 22.6129 108.365 22.6129C110.004 22.6129 111.222 21.4889 111.222 19.9668C111.222 17.8827 109.044 16.5948 107.194 17.6017Z" fill="url(#paint11_linear_122_4)"/>
<path d="M10.9751 37.7869C6.12781 45.936 2.82605 54.647 1.04637 64.0605C-0.405466 71.7178 -0.335216 84.0584 1.18687 92.6289C3.20071 104.08 8.02456 115.109 15.0028 124.265C18.2811 128.597 23.6904 134.287 25.6105 135.458C26.1257 135.763 26.2194 135.716 27.0858 134.756C27.601 134.194 28.3269 133.374 28.6781 132.953L29.3338 132.156L25.7042 128.503C20.5057 123.281 17.4381 119.347 14.3237 113.915C10.015 106.445 6.97081 97.4528 5.70631 88.4608C4.76964 81.7402 4.81647 72.514 5.84681 66.5427C7.53281 56.614 11.1858 46.9195 15.8926 39.8008L16.9932 38.1148L15.4711 37.1078C14.6281 36.5693 13.5977 35.9136 13.1997 35.6794L12.4737 35.2579L10.9751 37.7869Z" fill="url(#paint12_linear_122_4)"/>
<path d="M143.865 36.1478C143.092 36.6161 142.156 37.2249 141.804 37.5059L141.149 37.9743L142.647 40.433C145.902 45.7252 147.869 50.0105 149.602 55.5134C151.897 62.8194 152.834 68.5331 153.068 76.3543C153.536 92.6758 148.712 108.388 139.486 120.612C137.262 123.539 135.74 125.272 132.25 128.808C130.471 130.588 129.019 132.11 129.019 132.156C129.019 132.32 131.08 134.896 131.571 135.341C132.04 135.763 132.063 135.763 133.655 134.475C137.121 131.618 142.179 125.904 145.668 120.846C148.221 117.146 151.593 110.613 153.232 106.211C155.292 100.567 156.861 94.3384 157.751 88.0627C158.266 84.316 158.36 72.1159 157.868 68.5097C156.604 59.1196 153.56 49.5187 149.274 41.5805C147.471 38.2319 145.762 35.4218 145.504 35.3282C145.387 35.3048 144.661 35.656 143.865 36.1478Z" fill="url(#paint13_linear_122_4)"/>
<path d="M37.0379 40.995C36.1481 41.7444 35.9139 42.7279 36.3822 43.6645C37.1784 45.1632 38.7708 45.5379 39.9884 44.5075C40.8783 43.7582 41.1124 42.7747 40.6441 41.838C39.8479 40.3394 38.2556 39.9647 37.0379 40.995Z" fill="url(#paint14_linear_122_4)"/>
<path d="M118.435 40.7609C116.35 41.9317 117.357 45.093 119.793 45.093C120.683 45.093 121.994 43.7114 121.994 42.7747C121.994 41.1589 119.863 39.9647 118.435 40.7609Z" fill="url(#paint15_linear_122_4)"/>
<path d="M127.356 47.1302C124.476 48.6289 121.877 49.9637 121.596 50.1042L121.057 50.3617V65.887L127.028 69.0483L132.976 72.1861L138.432 69.3059C141.43 67.7135 143.959 66.4022 144.076 66.4022C144.17 66.4022 144.24 66.2617 144.24 66.0978C144.24 65.9573 144.24 62.3979 144.24 58.2064C144.24 51.3452 144.193 50.5959 143.842 50.3617C143.256 50.0105 139.931 48.2308 136.021 46.1936L132.625 44.4139L127.356 47.1302ZM135.529 49.9168L138.432 51.4623L135.318 53.1249L132.18 54.7641L129.838 53.5464C125.928 51.5092 125.975 51.7902 129.323 49.9637C130.892 49.0972 132.274 48.3947 132.391 48.3947C132.508 48.3713 133.913 49.0738 135.529 49.9168ZM127.38 56.3564C128.27 56.8482 129.113 57.2697 129.253 57.2697C129.394 57.2697 129.487 58.7449 129.487 61.4847C129.487 63.803 129.417 65.6997 129.323 65.6763C129.206 65.6763 128.199 65.1611 127.028 64.5523L124.921 63.4049L124.851 59.2601C124.78 54.4831 124.546 54.7407 127.38 56.3564Z" fill="url(#paint16_linear_122_4)"/>
<path d="M20.131 47.1771C17.4849 48.5587 14.9793 49.9168 14.5813 50.151L13.8085 50.5959V57.0589C13.8085 60.6183 13.8788 64.1542 13.949 64.927C14.0895 66.2149 14.1598 66.3554 14.8388 66.6832C15.6584 67.0579 22.2151 70.547 23.9948 71.5773L25.189 72.233L30.0831 69.5869C32.7995 68.135 35.4456 66.7066 35.9842 66.3788L36.9911 65.8168V50.5257L31.254 47.5751C28.1161 45.9594 25.3998 44.6246 25.2359 44.6246C25.072 44.6246 22.7771 45.7721 20.131 47.1771ZM26.6877 48.9802C27.2731 49.308 28.5611 50.0105 29.568 50.5257C30.5515 51.0642 31.3711 51.556 31.3711 51.6262C31.3711 51.7667 30.7154 52.1414 27.5776 53.8274L25.7745 54.7641L24.2992 53.9913C21.3721 52.4692 19.8969 51.6028 19.8969 51.4623C19.8969 51.275 25.0485 48.4182 25.3998 48.3947C25.5403 48.3947 26.1023 48.6523 26.6877 48.9802ZM33.1976 59.4006L33.1273 63.639L30.9027 64.7865C29.6851 65.4187 28.6079 65.9339 28.5142 65.9339C28.3971 65.9339 28.3269 64.0137 28.3503 61.6486L28.3737 57.3868L30.5046 56.2862C31.6989 55.6773 32.7995 55.1856 32.9634 55.1856C33.1976 55.1622 33.2444 56.0754 33.1976 59.4006Z" fill="url(#paint17_linear_122_4)"/>
<path d="M39.4264 70.4767C38.7708 71.1324 38.6302 71.4368 38.6302 72.3032C38.6302 74.4107 40.4333 75.7221 42.2364 74.9727C43.3838 74.5044 44.0161 73.5443 44.0161 72.3266C44.0161 71.4368 43.899 71.1558 43.2199 70.4767C42.5408 69.7976 42.2598 69.6805 41.3232 69.6805C40.3865 69.6805 40.1055 69.7976 39.4264 70.4767Z" fill="url(#paint18_linear_122_4)"/>
<path d="M115.156 70.1723C114.383 70.7343 113.939 72.0222 114.126 73.076C114.477 74.9025 116.866 75.7455 118.505 74.5981C119.886 73.5911 119.98 71.5539 118.669 70.3362C117.779 69.5166 116.14 69.423 115.156 70.1723Z" fill="url(#paint19_linear_122_4)"/>
<path d="M17.9767 76.7758C15.5413 77.8764 14.6983 81.0142 16.2438 83.2388C18.0469 85.8147 21.9809 85.721 23.6904 83.0515C24.2992 82.1148 24.3695 81.8104 24.2992 80.6396C24.1119 78.1106 22.3556 76.448 19.85 76.4948C19.1709 76.4948 18.3279 76.6353 17.9767 76.7758Z" fill="url(#paint20_linear_122_4)"/>
<path d="M135.997 76.9397C133.14 78.4618 132.929 82.4895 135.622 84.3394C136.934 85.2527 139.205 85.2995 140.563 84.4799C141.734 83.7306 142.601 82.2319 142.601 80.8972C142.601 79.7498 141.968 78.2042 141.289 77.5954C139.978 76.448 137.519 76.1436 135.997 76.9397Z" fill="url(#paint21_linear_122_4)"/>
<path d="M32.4716 80.4522C31.3242 81.3655 31.4881 83.1686 32.7995 83.8477C33.7596 84.3628 34.3216 84.2692 35.1646 83.5198C37.1784 81.7168 34.626 78.7662 32.4716 80.4522Z" fill="url(#paint22_linear_122_4)"/>
<path d="M122.813 80.4991C122.181 81.0611 121.994 81.9509 122.322 82.9813C122.509 83.4964 123.539 84.1989 124.195 84.1989C124.874 84.1989 125.787 83.6369 126.115 83.0047C126.607 82.0212 126.513 81.4358 125.764 80.663C124.898 79.7966 123.703 79.7497 122.813 80.4991Z" fill="url(#paint23_linear_122_4)"/>
<path d="M45.0699 115.718C44.8123 115.765 44.0161 115.929 43.3136 116.069C41.0188 116.514 38.2322 118.036 36.5227 119.769C31.7223 124.616 31.2774 131.782 35.3753 137.987L35.8671 138.76H19.8266C10.9985 138.76 3.5988 138.83 3.38805 138.9C2.82604 139.111 2.35771 140.188 2.49821 140.938C2.56846 141.289 2.89629 141.781 3.22413 142.038C3.78613 142.507 4.23105 142.507 21.7936 142.507H39.7777L41.2061 143.35C42.7282 144.239 46.0065 145.527 46.8964 145.598C48.395 145.691 42.775 145.972 36.2886 146.136C32.2375 146.23 28.725 146.417 28.4908 146.534C27.5073 147.049 27.5073 148.923 28.4908 149.672C28.842 149.93 37.6233 149.977 78.8134 150H128.714L129.347 149.508C130.166 148.876 130.19 147.494 129.44 146.792C128.925 146.324 128.551 146.3 120.472 146.136C115.835 146.066 111.854 145.925 111.597 145.855C111.292 145.762 111.573 145.598 112.534 145.27C113.306 145.036 114.969 144.31 116.28 143.677L118.645 142.507H132.461C146.207 142.507 146.277 142.507 146.909 142.015C148.08 141.078 148.15 139.884 147.073 139.064C146.792 138.854 143.748 138.783 134.592 138.76C127.918 138.76 122.462 138.713 122.462 138.643C122.462 138.596 122.884 137.894 123.375 137.121C124.71 135.06 125.272 133.21 125.436 130.424C125.694 125.928 124.523 122.766 121.549 119.792C118.528 116.795 115.625 115.671 110.871 115.718C105.064 115.765 99.303 117.942 89.3275 123.89C81.4595 128.574 77.3615 130.447 71.7649 131.875C69.4701 132.461 68.791 132.531 65.3253 132.555C61.0401 132.555 59.8224 132.32 57.2934 130.962C56.1226 130.353 53.4296 127.848 53.6872 127.614C53.7341 127.567 54.7878 127.777 56.0289 128.105C63.9672 130.119 71.3903 129.159 79.7735 125.061C82.2322 123.867 85.5574 122.04 87.5713 120.752C88.625 120.097 80.6399 122.204 77.7362 123.352C76.7761 123.75 75.1135 124.359 74.0364 124.733L72.1162 125.389L69.1188 123.516C60.923 118.364 53.1252 115.531 47.4349 115.601C46.4046 115.624 45.3274 115.671 45.0699 115.718ZM101.387 132.25C93.6596 139.72 86.8922 143.724 79.3285 145.34C77.6425 145.715 75.9565 145.832 71.7649 145.902C66.4493 146.019 66.4025 146.019 68.2524 145.668C75.699 144.263 82.5366 141.523 89.4914 137.191C94.1982 134.241 96.2823 132.999 97.9917 132.133C99.8885 131.173 103.05 129.862 103.495 129.885C103.682 129.885 102.745 130.939 101.387 132.25Z" fill="url(#paint24_linear_122_4)"/>
<path d="M124.265 12.9184C121.385 14.417 118.786 15.7518 118.505 15.8923L117.966 16.1499V31.6752L123.937 34.8364L129.885 37.9743L135.341 35.094C138.339 33.5017 140.868 32.1903 140.985 32.1903C141.078 32.1903 141.149 32.0498 141.149 31.8859C141.149 31.7454 141.149 28.1861 141.149 23.9945C141.149 17.1334 141.102 16.384 140.751 16.1499C140.165 15.7986 136.84 14.0189 132.929 11.9817L129.534 10.202L124.265 12.9184ZM132.438 15.7049L135.341 17.2504L132.227 18.913L129.089 20.5522L126.747 19.3345C122.837 17.2973 122.884 17.5783 126.232 15.7518C127.801 14.8854 129.183 14.1828 129.3 14.1828C129.417 14.1594 130.822 14.8619 132.438 15.7049ZM124.289 22.1445C125.179 22.6363 126.022 23.0578 126.162 23.0578C126.303 23.0578 126.396 24.5331 126.396 27.2728C126.396 29.5911 126.326 31.4878 126.232 31.4644C126.115 31.4644 125.108 30.9492 123.937 30.3404L121.83 29.193L121.76 25.0482C121.689 20.2712 121.455 20.5288 124.289 22.1445Z" fill="url(#paint25_linear_122_4)"/>
<defs>
<linearGradient id="paint0_linear_122_4" x1="79.0958" y1="0" x2="79.0958" y2="150" gradientUnits="userSpaceOnUse">
<stop stop-color="#27509B"/>
<stop offset="1" stop-color="#AEC5E5"/>
</linearGradient>
<linearGradient id="paint1_linear_122_4" x1="79.0958" y1="0" x2="79.0958" y2="150" gradientUnits="userSpaceOnUse">
<stop stop-color="#27509B"/>
<stop offset="1" stop-color="#AEC5E5"/>
</linearGradient>
<linearGradient id="paint2_linear_122_4" x1="79.0958" y1="0" x2="79.0958" y2="150" gradientUnits="userSpaceOnUse">
<stop stop-color="#27509B"/>
<stop offset="1" stop-color="#AEC5E5"/>
</linearGradient>
<linearGradient id="paint3_linear_122_4" x1="79.0958" y1="0" x2="79.0958" y2="150" gradientUnits="userSpaceOnUse">
<stop stop-color="#27509B"/>
<stop offset="1" stop-color="#AEC5E5"/>
</linearGradient>
<linearGradient id="paint4_linear_122_4" x1="79.0958" y1="0" x2="79.0958" y2="150" gradientUnits="userSpaceOnUse">
<stop stop-color="#27509B"/>
<stop offset="1" stop-color="#AEC5E5"/>
</linearGradient>
<linearGradient id="paint5_linear_122_4" x1="79.0958" y1="0" x2="79.0958" y2="150" gradientUnits="userSpaceOnUse">
<stop stop-color="#27509B"/>
<stop offset="1" stop-color="#AEC5E5"/>
</linearGradient>
<linearGradient id="paint6_linear_122_4" x1="79.0958" y1="0" x2="79.0958" y2="150" gradientUnits="userSpaceOnUse">
<stop stop-color="#27509B"/>
<stop offset="1" stop-color="#AEC5E5"/>
</linearGradient>
<linearGradient id="paint7_linear_122_4" x1="79.0958" y1="0" x2="79.0958" y2="150" gradientUnits="userSpaceOnUse">
<stop stop-color="#27509B"/>
<stop offset="1" stop-color="#AEC5E5"/>
</linearGradient>
<linearGradient id="paint8_linear_122_4" x1="79.0958" y1="0" x2="79.0958" y2="150" gradientUnits="userSpaceOnUse">
<stop stop-color="#27509B"/>
<stop offset="1" stop-color="#AEC5E5"/>
</linearGradient>
<linearGradient id="paint9_linear_122_4" x1="79.0958" y1="0" x2="79.0958" y2="150" gradientUnits="userSpaceOnUse">
<stop stop-color="#27509B"/>
<stop offset="1" stop-color="#AEC5E5"/>
</linearGradient>
<linearGradient id="paint10_linear_122_4" x1="79.0958" y1="0" x2="79.0958" y2="150" gradientUnits="userSpaceOnUse">
<stop stop-color="#27509B"/>
<stop offset="1" stop-color="#AEC5E5"/>
</linearGradient>
<linearGradient id="paint11_linear_122_4" x1="79.0958" y1="0" x2="79.0958" y2="150" gradientUnits="userSpaceOnUse">
<stop stop-color="#27509B"/>
<stop offset="1" stop-color="#AEC5E5"/>
</linearGradient>
<linearGradient id="paint12_linear_122_4" x1="79.0958" y1="0" x2="79.0958" y2="150" gradientUnits="userSpaceOnUse">
<stop stop-color="#27509B"/>
<stop offset="1" stop-color="#AEC5E5"/>
</linearGradient>
<linearGradient id="paint13_linear_122_4" x1="79.0958" y1="0" x2="79.0958" y2="150" gradientUnits="userSpaceOnUse">
<stop stop-color="#27509B"/>
<stop offset="1" stop-color="#AEC5E5"/>
</linearGradient>
<linearGradient id="paint14_linear_122_4" x1="79.0958" y1="0" x2="79.0958" y2="150" gradientUnits="userSpaceOnUse">
<stop stop-color="#27509B"/>
<stop offset="1" stop-color="#AEC5E5"/>
</linearGradient>
<linearGradient id="paint15_linear_122_4" x1="79.0958" y1="0" x2="79.0958" y2="150" gradientUnits="userSpaceOnUse">
<stop stop-color="#27509B"/>
<stop offset="1" stop-color="#AEC5E5"/>
</linearGradient>
<linearGradient id="paint16_linear_122_4" x1="79.0958" y1="0" x2="79.0958" y2="150" gradientUnits="userSpaceOnUse">
<stop stop-color="#27509B"/>
<stop offset="1" stop-color="#AEC5E5"/>
</linearGradient>
<linearGradient id="paint17_linear_122_4" x1="79.0958" y1="0" x2="79.0958" y2="150" gradientUnits="userSpaceOnUse">
<stop stop-color="#27509B"/>
<stop offset="1" stop-color="#AEC5E5"/>
</linearGradient>
<linearGradient id="paint18_linear_122_4" x1="79.0958" y1="0" x2="79.0958" y2="150" gradientUnits="userSpaceOnUse">
<stop stop-color="#27509B"/>
<stop offset="1" stop-color="#AEC5E5"/>
</linearGradient>
<linearGradient id="paint19_linear_122_4" x1="79.0958" y1="0" x2="79.0958" y2="150" gradientUnits="userSpaceOnUse">
<stop stop-color="#27509B"/>
<stop offset="1" stop-color="#AEC5E5"/>
</linearGradient>
<linearGradient id="paint20_linear_122_4" x1="79.0958" y1="0" x2="79.0958" y2="150" gradientUnits="userSpaceOnUse">
<stop stop-color="#27509B"/>
<stop offset="1" stop-color="#AEC5E5"/>
</linearGradient>
<linearGradient id="paint21_linear_122_4" x1="79.0958" y1="0" x2="79.0958" y2="150" gradientUnits="userSpaceOnUse">
<stop stop-color="#27509B"/>
<stop offset="1" stop-color="#AEC5E5"/>
</linearGradient>
<linearGradient id="paint22_linear_122_4" x1="79.0958" y1="0" x2="79.0958" y2="150" gradientUnits="userSpaceOnUse">
<stop stop-color="#27509B"/>
<stop offset="1" stop-color="#AEC5E5"/>
</linearGradient>
<linearGradient id="paint23_linear_122_4" x1="79.0958" y1="0" x2="79.0958" y2="150" gradientUnits="userSpaceOnUse">
<stop stop-color="#27509B"/>
<stop offset="1" stop-color="#AEC5E5"/>
</linearGradient>
<linearGradient id="paint24_linear_122_4" x1="79.0958" y1="0" x2="79.0958" y2="150" gradientUnits="userSpaceOnUse">
<stop stop-color="#27509B"/>
<stop offset="1" stop-color="#AEC5E5"/>
</linearGradient>
<linearGradient id="paint25_linear_122_4" x1="79.0958" y1="0" x2="79.0958" y2="150" gradientUnits="userSpaceOnUse">
<stop stop-color="#27509B"/>
<stop offset="1" stop-color="#AEC5E5"/>
</linearGradient>
</defs>
</svg>
