<svg width="148" height="150" viewBox="0 0 148 150" fill="none" xmlns="http://www.w3.org/2000/svg">
<path d="M63.2959 0.331101C60.7792 0.782197 56.7431 2.15923 54.8438 3.20387C52.5171 4.46219 50.3091 6.19535 48.4572 8.16593L46.7953 9.94657L45.7744 9.66167C44.1362 9.21057 41.1447 9.25805 39.8389 9.75663C37.5597 10.6351 36.0639 13.2704 36.4201 15.7158C36.61 16.8792 37.6546 19.2059 38.6993 20.7254L39.4353 21.7938L38.8417 23.3133C37.441 26.7796 36.7524 30.8869 36.7287 35.6828C36.7287 40.2412 37.0611 41.9744 39.1504 48.171C41.4059 54.7713 41.7857 56.6944 41.9282 62.2737C42.2131 71.7705 40.4799 80.555 36.6337 89.1258L35.4466 91.7849L36.2301 92.5446C36.9424 93.2094 37.1798 93.2806 38.7468 93.3518C40.8835 93.4231 42.0944 93.9929 43.8275 95.7498L45.0384 97.0081L45.9168 93.5418C48.8133 81.7658 49.1695 78.8218 49.3119 66.7609L49.4306 57.4541L51.1163 58.7362C53.1818 60.3031 58.2151 62.8435 61.1354 63.7932C65.0765 65.099 68.4004 65.5738 73.5999 65.5738C77.731 65.5738 78.5619 65.5026 81.316 64.9091C86.7766 63.7694 91.8099 61.7276 95.6798 59.0923L97.4605 57.8815L97.6029 66.0012C97.8166 77.5397 98.5051 83.0479 100.903 92.782C101.307 94.4202 101.687 96.1059 101.782 96.5095C101.924 97.388 102.233 97.5304 102.446 96.8419C102.636 96.2009 104.464 94.5627 105.699 93.9454C106.364 93.613 107.313 93.3756 108.429 93.3044C109.925 93.2094 110.21 93.1144 110.732 92.5446C111.041 92.1885 111.421 91.8561 111.563 91.8086C111.729 91.7374 111.302 90.6215 110.519 89.0546C106.53 81.0298 104.488 70.2035 105.153 60.8729C105.485 56.5044 106.055 53.6791 107.456 49.6905C110.115 42.0694 110.519 39.8376 110.329 34.282C110.186 30.1747 109.711 27.7055 108.311 23.7406L107.598 21.77L108.619 20.2506C111.753 15.5971 111.278 11.8697 107.313 9.78038C106.292 9.23431 102.921 9.21057 101.497 9.73289L100.547 10.0653L98.4101 7.90477C93.5193 2.94271 87.5601 0.307359 80.7224 0.0461984C78.8468 -0.0250273 77.0424 0.0461984 75.8554 0.236134C74.3359 0.473553 73.5761 0.497294 72.0566 0.259875C69.5163 -0.119995 65.5989 -0.0725111 63.2959 0.331101ZM42.9728 15.0511C43.4951 15.2648 43.9225 15.5022 43.9225 15.5971C43.9225 15.6684 43.5901 16.2619 43.2102 16.9267C42.8304 17.5677 42.498 18.3037 42.498 18.5174C42.498 19.1584 42.0944 19.0397 41.9282 18.3512C41.857 18.0426 41.4059 17.1404 40.9548 16.3569C40.5037 15.5734 40.1238 14.8849 40.1238 14.8137C40.1238 14.5288 42.0469 14.6949 42.9728 15.0511ZM106.839 14.8137C106.839 14.8849 106.34 15.882 105.723 16.9979C104.631 19.016 104.607 19.0397 104.441 18.3037C104.369 17.9001 104.061 17.1878 103.752 16.713C103.135 15.7158 103.325 15.2885 104.559 14.9324C105.414 14.6712 106.839 14.6 106.839 14.8137ZM59.3547 18.4937C62.5361 19.2059 64.1743 22.0312 63.747 25.9961L63.5808 27.6105L63.2247 26.5422C62.7973 25.2601 62.2275 24.3816 60.9454 23.0521C59.7583 21.8175 58.1676 21.3427 56.5769 21.77C55.5085 22.0549 54.2977 22.9571 53.8466 23.7644C53.6092 24.2392 53.6092 24.2392 54.2502 23.7406C54.6064 23.4557 55.0575 23.2183 55.2474 23.2183C55.5798 23.2183 55.5798 23.2895 55.2711 23.7406C54.5351 24.8802 54.2977 26.0436 54.6064 27.1357C55.2949 29.6286 58.0014 30.7682 60.5181 29.6286C61.0879 29.3674 61.6102 29.1775 61.6577 29.2487C61.7052 29.2962 61.6814 29.6286 61.5865 29.9847C61.4678 30.4358 60.7555 31.1006 59.236 32.2402C56.6482 34.1396 55.7934 35.113 54.7251 37.3447C53.2056 40.5024 53.1344 44.1824 54.5114 47.1026C54.82 47.7911 55.8647 49.1919 56.8144 50.2603C58.2151 51.8273 58.8799 52.3496 60.5181 53.1806C62.4174 54.154 62.5836 54.2015 65.0528 54.2727C67.9493 54.3914 69.3263 54.154 71.8905 53.1331C73.4574 52.492 73.7186 52.4446 74.1697 52.7295C75.0956 53.323 77.2561 54.0353 79.0605 54.2964C81.9095 54.7238 84.0938 54.3439 87.0615 52.8719C88.4148 52.2071 89.4595 51.5899 89.3882 51.4711C89.317 51.3524 89.4832 51.1388 89.7444 50.9963C90.6228 50.5215 92.5696 47.435 93.092 45.6781C93.4956 44.3248 93.5668 43.5414 93.4956 41.5945C93.4244 39.434 93.3294 39.0541 92.5934 37.5821C91.5725 35.5878 89.958 33.7834 87.6788 32.0978C86.0644 30.8869 85.4708 30.1272 85.4708 29.2487C85.4708 28.9638 85.637 29.0113 86.2306 29.4387C87.9875 30.6732 91.1689 29.8423 92.1186 27.848C92.7358 26.5896 92.7121 25.8536 92.0711 24.5241C91.7862 23.9543 91.62 23.4082 91.6912 23.3133C91.7624 23.242 92.1898 23.3607 92.6409 23.5744L93.4244 23.9543L92.4509 23.0046C90.4804 21.1053 87.7026 21.1765 85.827 23.1708C85.0672 23.9543 84.5924 24.8327 84.0463 26.3997L83.6427 27.6105L83.4765 25.8299C83.2153 23.2183 83.7614 21.1527 85.0435 19.9656C86.6104 18.4937 89.958 17.9001 93.0682 18.5649C95.5136 19.0635 99.2174 20.9391 101.069 22.6247C105.841 26.922 107.218 33.3323 105.438 43.0428C104.441 48.5509 104.298 48.9545 104.322 46.4853C104.346 45.3695 104.251 44.1349 104.132 43.755C103.942 43.0428 103.942 43.0665 103.538 44.3486C100.286 54.7713 85.0672 63.0097 71.107 61.8938C64.1743 61.324 58.5475 59.4009 53.1581 55.7209C48.1011 52.2546 44.8484 48.361 43.6613 44.3961C43.4951 43.85 43.3052 43.3989 43.2102 43.3989C42.9491 43.3989 42.7591 46.2004 42.9016 47.5537C43.1628 49.7855 42.7592 48.5034 42.0469 44.7047C40.4087 36.0152 40.5749 31.5754 42.7354 27.2069C44.3024 24.073 46.3204 22.0312 49.6443 20.2743C53.0631 18.4699 56.5057 17.8289 59.3547 18.4937ZM59.8533 23.4557C60.5181 23.8118 60.4706 25.2126 59.7821 25.6874C59.0936 26.1623 58.6662 26.1623 58.1202 25.6637C57.6453 25.2363 57.5503 23.9305 57.9777 23.5032C58.3338 23.1471 59.236 23.1233 59.8533 23.4557ZM89.7444 23.6694C90.5753 25.2601 88.8897 26.8983 87.7263 25.5925C87.1802 24.9989 87.1802 23.9305 87.75 23.5269C88.3911 23.0521 89.4595 23.1471 89.7444 23.6694ZM77.8022 30.9581C80.1051 31.433 81.7433 32.169 84.2125 33.8072C87.3939 35.9677 89.6731 38.7217 90.1242 41.0247C90.2667 41.6895 90.2667 41.6895 89.3645 41.4758C88.8422 41.3808 87.6551 41.2621 86.7291 41.2621C85.2334 41.2621 84.996 41.3096 84.996 41.6895C84.996 42.0219 85.3996 42.1881 87.014 42.5205C90.2667 43.1852 90.3142 43.209 90.1242 44.5148C90.053 45.1321 89.9343 45.6544 89.8631 45.7256C89.8156 45.7731 88.6522 45.4407 87.2752 44.9421C85.8982 44.4435 84.6161 44.1112 84.4024 44.1824C83.8089 44.4198 83.9988 44.9896 84.8298 45.2983C85.2334 45.4644 86.373 46.0343 87.3227 46.5803L89.0321 47.53L87.0853 49.5243L85.9694 48.8833C84.3075 47.9099 81.7196 46.7465 81.5771 46.9127C81.1735 47.3163 81.6484 47.9099 83.2866 49.002C84.26 49.643 85.1147 50.3078 85.1622 50.4265C85.2809 50.8064 82.052 51.3049 80.6275 51.1388C78.3008 50.8301 75.7366 49.2631 75.1194 47.7437C74.9294 47.3163 74.787 46.5091 74.787 45.9393C74.787 45.0846 74.9294 44.7759 75.5942 44.1349C76.0453 43.6838 76.5439 43.0428 76.6863 42.6866C76.9475 42.0694 77.0187 42.0456 77.6597 42.2593C78.6094 42.5917 79.8203 42.1406 80.7224 41.1197C81.5534 40.1463 81.6009 39.6002 80.9599 37.867C79.6303 34.3295 76.3777 32.715 71.9617 33.4036C69.5163 33.7834 68.0917 34.5669 67.0708 36.1101C66.1212 37.5584 65.6226 39.2203 65.86 40.17C66.1924 41.5233 68.2342 42.6629 69.4688 42.2118C69.9199 42.0219 70.0861 42.0931 70.2998 42.5205C70.4422 42.8054 70.9883 43.4939 71.5106 44.0399C72.4603 45.0133 72.4603 45.0371 72.3653 46.4616C72.2703 47.7199 72.1516 48.0286 71.4394 48.7646C69.7537 50.5215 66.9521 51.3762 64.0794 50.9963C62.3937 50.7826 61.7289 50.569 61.7289 50.2603C61.7289 50.0941 64.1743 48.4084 65.3614 47.7674C65.6938 47.5775 65.7176 47.4588 65.4801 47.1501C65.1952 46.794 65.0528 46.794 63.7945 47.3401C63.0347 47.6487 61.8714 48.266 61.2066 48.6696L59.9958 49.4293L59.2123 48.5509C58.7612 48.0761 58.4051 47.5537 58.4051 47.435C58.4051 47.2926 59.4497 46.6753 60.7318 46.0817C63.4621 44.7759 63.2009 44.9659 63.011 44.491C62.7973 43.945 62.37 44.0162 59.7821 45.0371L57.4554 45.963L57.218 45.0846C56.7906 43.5414 56.8856 43.209 57.8827 42.9241C58.3576 42.8054 59.4497 42.5679 60.3044 42.4255C62.3462 42.0931 62.4649 42.0456 62.2987 41.6183C62.18 41.3334 61.7764 41.2621 60.4469 41.2621C59.5209 41.2621 58.3576 41.3808 57.8353 41.4758L56.9331 41.6895L57.0755 40.9772C57.2892 39.9326 58.3338 37.962 59.3073 36.7749C61.3965 34.2108 66.5723 31.433 70.5134 30.7445C71.9854 30.4833 76.1403 30.602 77.8022 30.9581ZM77.0899 34.282C77.8022 34.8043 78.4195 35.9439 78.6569 37.1073C78.7281 37.4872 78.7519 37.6771 78.6569 37.5109C78.5857 37.321 78.2058 36.9886 77.8022 36.7512C77.1137 36.3238 77.0899 36.3238 76.4014 36.8224C75.3805 37.5584 72.5077 37.5584 71.012 36.8224L69.9674 36.3001L69.0652 37.0123L68.1867 37.7008L68.5428 36.5375C69.0889 34.8993 69.5637 34.377 70.8933 33.9971C72.6739 33.4985 76.259 33.6647 77.0899 34.282Z" fill="url(#paint0_linear_82_12)"/>
<path d="M14.0789 40.1463C13.153 40.7161 9.59173 42.7816 6.19663 44.7284L0 48.266V66.0724L1.13961 66.6897C5.31818 68.9452 8.2147 70.5834 11.7048 72.6489L15.6934 75.0231L17.1654 74.2396C17.9726 73.8123 20.4655 72.4352 22.6735 71.1769C24.9052 69.8949 27.8492 68.2567 29.2738 67.5207L31.8141 66.1436V48.266L31.2918 47.9099C30.9832 47.7199 29.2975 46.7702 27.5406 45.7731C25.7837 44.7759 22.4361 42.8766 20.1331 41.547C17.8302 40.2175 15.9071 39.1254 15.8596 39.1254C15.8121 39.1254 15.0286 39.6002 14.0789 40.1463ZM20.7979 47.3163C26.4247 50.4977 26.5909 50.5927 26.5909 50.7826C26.5909 50.9488 16.4769 56.7656 15.9783 56.8843C15.6934 56.9555 14.1502 56.1246 7.40747 52.2309L4.72464 50.6877L6.4578 49.8092C7.40747 49.3106 9.85289 47.9336 11.8709 46.7465C13.889 45.5594 15.6222 44.586 15.7171 44.586C15.8358 44.586 18.1151 45.8206 20.7979 47.3163Z" fill="url(#paint1_linear_82_12)"/>
<path d="M127.613 41.2859C125.785 42.3543 123.007 43.945 121.416 44.8234C119.849 45.7019 117.879 46.8652 117.024 47.3638L115.504 48.3135L115.433 57.2167L115.386 66.1436L116.858 66.9034C117.689 67.3307 121.226 69.325 124.716 71.3194L131.079 74.9756L136.943 71.6992C145.823 66.7134 146.749 66.1911 146.986 66.1911C147.105 66.1911 147.2 62.3212 147.2 57.2167V48.266L146.393 47.7437C145.941 47.4588 143.615 46.1292 141.217 44.7997C138.843 43.4701 135.685 41.7132 134.213 40.8823C132.741 40.0513 131.411 39.3628 131.245 39.3628C131.079 39.3628 129.441 40.2412 127.613 41.2859ZM133.24 45.5832C134.189 46.1292 136.587 47.4588 138.534 48.5509C140.505 49.643 142.19 50.6402 142.285 50.7351C142.404 50.8539 141.288 51.6373 139.792 52.4683C138.32 53.2993 135.875 54.7238 134.355 55.5785L131.601 57.1692L130.296 56.4095C129.607 55.9821 127.067 54.5576 124.692 53.2518C122.318 51.946 120.395 50.8301 120.395 50.7589C120.395 50.6402 131.055 44.6335 131.34 44.6097C131.411 44.586 132.266 45.0371 133.24 45.5832Z" fill="url(#paint2_linear_82_12)"/>
<path d="M70.8696 80.46C69.4213 81.2435 67.6644 82.2644 66.9521 82.6917C66.2399 83.0953 65.0765 83.7601 64.4118 84.1162L63.1534 84.781V96.2958L65.124 97.4117C66.1924 98.029 68.3054 99.2636 69.8012 100.142C71.2969 101.02 72.7689 101.851 73.0538 102.018C73.5286 102.255 74.1697 101.946 78.7044 99.3823L83.8326 96.5095L83.7851 84.9472L82.788 84.2824C81.7671 83.5939 73.7661 79.0117 73.5761 79.0117C73.5286 79.0117 72.2941 79.6528 70.8696 80.46ZM76.1165 83.8313C77.2799 84.5436 78.7519 85.3983 79.3692 85.7544C80.0102 86.1106 80.485 86.443 80.4375 86.4904C80.0339 86.8941 73.9323 90.4079 73.6236 90.4079C73.2437 90.4079 70.1573 88.7222 67.8306 87.2739C66.9996 86.7516 66.7622 86.4667 66.9521 86.2768C67.4982 85.7307 73.0301 82.6205 73.5049 82.5968C73.7661 82.573 74.9532 83.1428 76.1165 83.8313Z" fill="url(#paint3_linear_82_12)"/>
<path d="M17.8302 85.5645C16.8805 86.0393 16.3819 86.5142 15.7884 87.4164C14.7437 89.0546 14.4826 90.0992 14.4826 92.6633C14.4826 95.5836 15.4322 99.3823 17.6402 105.318C18.6137 107.882 19.5871 110.802 19.8007 111.776C20.0144 112.749 20.2518 113.77 20.3231 114.031C20.3943 114.292 20.5367 116.928 20.6555 119.872C20.8929 125.807 21.2015 127.588 22.3411 129.891C23.2908 131.742 25.7362 134.188 27.6593 135.185C30.2472 136.538 31.4105 136.823 34.5445 136.8C37.9633 136.8 39.5777 136.42 42.7117 134.876C46.8428 132.835 49.7868 129.321 51.7811 123.979C53.7754 118.684 54.6539 112.013 53.6092 110.042C53.3006 109.425 51.8523 108.879 51.0451 109.045C49.8105 109.306 49.3594 110.09 49.0033 112.654C48.6234 115.218 47.7687 118.589 47.4838 118.779C47.0802 119.017 45.3945 117.117 45.1334 116.168C44.5398 113.984 44.9672 112.155 46.9852 108.38C48.5284 105.484 48.6709 104.843 48.0536 103.561C47.1752 101.709 44.611 101.519 43.2815 103.228C42.6879 103.964 40.3612 108.143 39.5303 109.995C37.7971 113.77 37.3223 117.26 38.2007 119.777C38.6756 121.201 38.4381 121.201 37.7021 119.777C36.8712 118.115 36.3251 116.049 36.1589 113.912C35.9452 110.588 36.705 108.024 38.9605 104.653C40.6224 102.184 40.9073 101.495 40.6936 100.522C40.3375 98.9074 39.0317 98.029 37.441 98.3376C36.2064 98.5751 35.7078 99.0736 33.7135 102.041C30.4134 106.98 29.0601 110.185 28.7752 113.912L28.609 115.93L28.0867 114.031C27.3982 111.443 27.2557 109.686 27.5406 107.787C27.9442 105.318 28.7514 103.798 31.9091 99.6434C32.9775 98.2189 33.0487 98.0527 32.93 96.9843C32.6926 94.3965 30.1047 93.6605 27.968 95.5836C27.4456 96.0584 26.1873 97.7203 25.1664 99.2398C23.3383 101.994 22.6023 103.656 21.9375 106.552L21.6289 107.858L21.7476 106.457C21.8188 105.674 22.0562 104.463 22.2936 103.727L22.6735 102.421L21.5339 100.166C20.2756 97.6491 19.682 95.8685 19.0885 92.972C18.7324 91.2388 18.7324 90.9776 19.0647 90.2654C19.5158 89.3395 20.2518 89.0546 21.0591 89.4819C21.89 89.933 22.1987 90.669 22.6735 93.4231L23.1009 95.821L24.0031 94.4677C24.5016 93.7317 25.1902 92.9482 25.5463 92.782C26.1398 92.4496 26.1636 92.3784 26.0211 90.9064C25.7362 88.2236 24.6916 86.5379 22.721 85.5408C21.0828 84.7335 19.4921 84.7335 17.8302 85.5645Z" fill="url(#paint4_linear_82_12)"/>
<path d="M124.859 85.2796C122.674 86.0393 121.345 87.9624 121.131 90.574C121.012 92.0223 121.06 92.141 121.725 92.8533C122.128 93.2806 122.769 94.0878 123.173 94.6339C124.004 95.821 123.933 95.916 124.408 93.0195C124.764 90.9777 125.476 89.5057 126.212 89.3157C127.043 89.102 127.921 89.7668 128.111 90.764C128.444 92.5921 127.233 97.0081 125.452 100.356L124.384 102.35L124.882 104.273C125.547 106.908 125.452 107.834 124.764 105.365C123.98 102.469 123.838 102.16 122.152 99.6434C119.374 95.4649 117.926 94.2303 116.217 94.5389C114.863 94.8001 114.151 95.5836 114.032 96.9606C113.937 98.124 113.961 98.1477 116.098 100.973C118.401 104.036 119.089 105.484 119.398 107.977C119.635 109.734 119.398 112.939 118.923 114.743L118.591 115.93L118.448 113.912C118.306 111.728 117.641 109.401 116.501 107.146C115.552 105.247 112.038 99.9521 111.16 99.1211C109.972 97.9815 108.144 97.9578 107.028 99.0736C105.794 100.308 105.984 101.424 107.883 104.249C110.162 107.644 111.112 110.327 111.112 113.295C111.112 115.93 109.972 119.634 108.88 120.536C108.619 120.75 108.667 120.56 109.023 119.824C109.664 118.495 109.64 115.954 108.999 113.556C108.429 111.538 106.72 107.977 104.797 104.89C103.111 102.16 101.924 101.543 100.072 102.421C99.0749 102.896 98.4339 104.154 98.6238 105.318C98.6951 105.769 99.2649 107.075 99.9059 108.191C102.636 112.939 102.992 116.263 100.927 117.948C100.476 118.352 99.9534 118.661 99.8109 118.661C99.4311 118.661 98.5289 115.456 98.149 112.796C97.7454 109.9 97.2468 109.164 95.6086 109.164C93.6855 109.164 93.0682 110.09 93.0682 112.986C93.0682 118.233 95.0863 125.024 97.8403 128.988C101.117 133.737 105.818 136.515 111.207 136.871C115.694 137.156 119.445 135.802 122.389 132.811C125.262 129.914 126.307 126.947 126.307 121.676C126.307 117.569 126.71 113.746 127.352 111.538C127.684 110.422 128.752 107.241 129.726 104.439C133.24 94.5627 133.501 90.0755 130.77 86.9653C129.132 85.1134 127.019 84.4961 124.859 85.2796Z" fill="url(#paint5_linear_82_12)"/>
<path d="M58.3338 103.846C58.4525 104.867 58.5238 108.333 58.5238 111.538C58.5238 118.091 58.3338 119.492 56.7194 124.406C54.1553 132.289 49.7868 137.227 42.8066 140.195L42.0232 140.503V150H54.9625C62.0851 150 67.9018 149.929 67.9018 149.81C67.9018 149.454 66.9047 142.996 66.0025 137.417C65.4801 134.212 64.5067 128.205 63.8657 124.05C62.1088 112.868 61.2778 109.259 59.4497 104.819C58.8324 103.347 58.3101 102.113 58.2626 102.065C58.2151 102.018 58.2389 102.801 58.3338 103.846Z" fill="url(#paint6_linear_82_12)"/>
<path d="M88.486 102.682C88.0349 103.395 86.3493 108.024 85.8507 109.9C84.806 113.865 84.1888 117.521 81.5534 135.517C81.221 137.678 80.8649 140.076 80.7225 140.859C80.6037 141.643 80.2714 143.661 80.0102 145.37C79.749 147.056 79.4879 148.813 79.4166 149.217L79.2742 150H104.868L105.034 147.816C105.105 146.629 105.177 144.516 105.153 143.139L105.129 140.622L102.589 139.364C97.318 136.8 93.5431 132.502 91.0739 126.282C88.9609 121.035 88.3199 117.355 88.3199 110.826C88.3436 108.285 88.4386 105.389 88.5573 104.416C88.7472 102.682 88.7235 102.279 88.486 102.682Z" fill="url(#paint7_linear_82_12)"/>
<defs>
<linearGradient id="paint0_linear_82_12" x1="92.2159" y1="102.538" x2="92.2159" y2="150" gradientUnits="userSpaceOnUse">
<stop stop-color="#27509B"/>
<stop offset="1" stop-color="#AEC5E5"/>
</linearGradient>
<linearGradient id="paint1_linear_82_12" x1="92.2159" y1="102.538" x2="92.2159" y2="150" gradientUnits="userSpaceOnUse">
<stop stop-color="#27509B"/>
<stop offset="1" stop-color="#AEC5E5"/>
</linearGradient>
<linearGradient id="paint2_linear_82_12" x1="92.2159" y1="102.538" x2="92.2159" y2="150" gradientUnits="userSpaceOnUse">
<stop stop-color="#27509B"/>
<stop offset="1" stop-color="#AEC5E5"/>
</linearGradient>
<linearGradient id="paint3_linear_82_12" x1="92.2159" y1="102.538" x2="92.2159" y2="150" gradientUnits="userSpaceOnUse">
<stop stop-color="#27509B"/>
<stop offset="1" stop-color="#AEC5E5"/>
</linearGradient>
<linearGradient id="paint4_linear_82_12" x1="92.2159" y1="102.538" x2="92.2159" y2="150" gradientUnits="userSpaceOnUse">
<stop stop-color="#27509B"/>
<stop offset="1" stop-color="#AEC5E5"/>
</linearGradient>
<linearGradient id="paint5_linear_82_12" x1="92.2159" y1="102.538" x2="92.2159" y2="150" gradientUnits="userSpaceOnUse">
<stop stop-color="#27509B"/>
<stop offset="1" stop-color="#AEC5E5"/>
</linearGradient>
<linearGradient id="paint6_linear_82_12" x1="92.2159" y1="102.538" x2="92.2159" y2="150" gradientUnits="userSpaceOnUse">
<stop stop-color="#27509B"/>
<stop offset="1" stop-color="#AEC5E5"/>
</linearGradient>
<linearGradient id="paint7_linear_82_12" x1="92.2159" y1="102.538" x2="92.2159" y2="150" gradientUnits="userSpaceOnUse">
<stop stop-color="#27509B"/>
<stop offset="1" stop-color="#AEC5E5"/>
</linearGradient>
</defs>
</svg>
